<svg width="13" height="17" viewBox="0 0 13 17" fill="none" xmlns="http://www.w3.org/2000/svg">
<g id="Group 2">
<path id="Line 4" d="M5.96967 14.5303C6.26256 14.8232 6.73744 14.8232 7.03033 14.5303L11.8033 9.75736C12.0962 9.46447 12.0962 8.98959 11.8033 8.6967C11.5104 8.40381 11.0355 8.40381 10.7426 8.6967L6.5 12.9393L2.25736 8.6967C1.96447 8.40381 1.48959 8.40381 1.1967 8.6967C0.903806 8.98959 0.903806 9.46447 1.1967 9.75736L5.96967 14.5303ZM7.25 1C7.25 0.585786 6.91421 0.25 6.5 0.25C6.08579 0.25 5.75 0.585786 5.75 1L7.25 1ZM7.25 14L7.25 1L5.75 1L5.75 14L7.25 14Z" fill="white"/>
<line id="Line 5" x1="1.25" y1="16.25" x2="11.75" y2="16.25" stroke="white" stroke-width="1.5" stroke-linecap="round"/>
</g>
</svg>
