<svg width="42" height="57" viewBox="0 0 42 57" fill="none" xmlns="http://www.w3.org/2000/svg">
<g id="Icon Locked">
<path id="Vector" d="M40.107 24.0169C31.3521 20.8225 22.0056 19.9352 12.9549 21.2366V13.8423C12.9549 9.40563 16.5634 5.79718 21 5.79718C25.4366 5.79718 29.0451 9.40563 29.0451 13.8423C29.0451 25.5 30.4028 21.7432 32 21.7432C33.5972 21.7432 34.8423 25.5 34.8423 13.8423C34.8423 6.21127 28.631 0 21 0C13.369 0 7.15775 6.21127 7.15775 13.8423V22.3606C5.3831 22.8338 3.66761 23.3662 1.89296 23.9577C0.769015 24.3718 0 25.4366 0 26.6789V53.2394C0 54.8366 1.30141 56.138 2.89859 56.138H39.1014C40.6986 56.138 42 54.8366 42 53.2394V26.738C42 25.4958 41.231 24.431 40.107 24.0169ZM36.2028 50.4H5.79718V28.7493C15.6761 25.5549 26.3239 25.5549 36.2028 28.7493V50.4Z" fill="black"/>
<path id="Vector_2" d="M16.9183 31.5197C16.9183 33.1169 17.8056 34.4774 19.1662 35.1281L17.569 41.1028C17.5099 41.3986 17.569 41.7535 17.7465 41.9901C17.9239 42.2267 18.2197 42.4042 18.5746 42.4042H23.4845C23.7803 42.4042 24.0761 42.2859 24.3127 41.9901C24.5493 41.6943 24.5493 41.3986 24.4901 41.1028L22.893 35.1281C24.1944 34.4774 25.1408 33.1169 25.1408 31.5197C25.1408 29.2718 23.307 27.438 21.0591 27.438C18.8113 27.438 16.9183 29.2718 16.9183 31.5197Z" fill="black"/>
</g>
</svg>
