<svg width="24" height="24" viewBox="0 0 24 24" fill="none" xmlns="http://www.w3.org/2000/svg">
<g id="Icon_Swap">
<path id="Vector" d="M2.21995 9.21784L6.71395 4.72284C6.84094 4.59582 7.0093 4.51859 7.1884 4.50519C7.36751 4.4918 7.54548 4.54312 7.68995 4.64984L7.77495 4.72184L12.279 9.21684C12.4122 9.35067 12.4901 9.52987 12.497 9.71863C12.5039 9.90739 12.4394 10.0918 12.3162 10.235C12.1931 10.3783 12.0204 10.4697 11.8328 10.4912C11.6451 10.5127 11.4563 10.4626 11.304 10.3508L11.22 10.2788L7.99695 7.06184L7.99695 18.7578C7.99674 18.9388 7.93113 19.1135 7.81223 19.2498C7.69334 19.3862 7.52915 19.475 7.34995 19.4998L7.24895 19.5068C7.06772 19.5068 6.89261 19.4412 6.75602 19.3221C6.61943 19.2029 6.5306 19.0384 6.50595 18.8588L6.49895 18.7568L6.49795 7.05884L3.28095 10.2768C3.15396 10.4039 2.98561 10.4811 2.8065 10.4945C2.62739 10.5079 2.44942 10.4566 2.30495 10.3498L2.22095 10.2768C2.09394 10.1498 2.01671 9.98149 2.00331 9.80238C1.98991 9.62328 2.04124 9.44531 2.14795 9.30084L2.22095 9.21684L6.71495 4.72184L2.22095 9.21684L2.21995 9.21784ZM16.65 4.49984L16.75 4.49284C16.9314 4.4926 17.1067 4.55813 17.2435 4.67727C17.3803 4.79642 17.4693 4.96111 17.494 5.14084L17.501 5.24284L17.5 16.9388L20.72 13.7178C20.8469 13.5908 21.0153 13.5136 21.1944 13.5002C21.3735 13.4868 21.5515 13.5381 21.696 13.6448L21.78 13.7168C21.9072 13.8439 21.9846 14.0124 21.998 14.1918C22.0114 14.3711 21.9599 14.5493 21.853 14.6938L21.781 14.7778L17.284 19.2778C17.157 19.4049 16.9886 19.4821 16.8095 19.4955C16.6304 19.5089 16.4524 19.4575 16.308 19.3508L16.224 19.2778L11.72 14.7778C11.587 14.6438 11.5095 14.4646 11.5028 14.276C11.4962 14.0873 11.5609 13.9031 11.6841 13.7601C11.8073 13.6171 11.9799 13.5258 12.1675 13.5044C12.355 13.483 12.5437 13.5332 12.696 13.6448L12.78 13.7168L16 16.9348V5.24284C16 5.0613 16.0659 4.88595 16.1855 4.74932C16.305 4.61268 16.47 4.52404 16.65 4.49984L16.75 4.49284L16.65 4.49984Z" fill="white"/>
</g>
</svg>
