<svg width="42" height="57" viewBox="0 0 42 57" fill="none" xmlns="http://www.w3.org/2000/svg">
<g id="Icon Unlock ">
<path id="Vector" d="M40.107 24.0169C31.3521 20.8225 22.0056 19.9352 12.9549 21.2366V13.8423C12.9549 9.40563 16.5634 5.79718 21 5.79718C25.4366 5.79718 29.0451 9.40563 29.0451 13.8423C29.0451 15.4394 30.3465 16.7408 31.9437 16.7408C33.5408 16.7408 34.8423 15.4394 34.8423 13.8423C34.8423 6.21127 28.631 0 21 0C13.369 0 7.15775 6.21127 7.15775 13.8423V22.3606C5.3831 22.8338 3.66761 23.3662 1.89296 23.9577C0.769015 24.3718 0 25.4366 0 26.6789V53.2394C0 54.8366 1.30141 56.138 2.89859 56.138H39.1014C40.6986 56.138 42 54.8366 42 53.2394V26.738C42 25.4958 41.231 24.431 40.107 24.0169ZM36.2028 50.4H5.79718V28.7493C15.6761 25.5549 26.3239 25.5549 36.2028 28.7493V50.4Z" fill="black"/>
<path id="Vector_2" d="M16.9183 35.0197C16.9183 36.6169 17.8056 37.9774 19.1662 38.6281L17.569 44.6028C17.5099 44.8986 17.569 45.2535 17.7465 45.4901C17.9239 45.7267 18.2197 45.9042 18.5746 45.9042H23.4845C23.7803 45.9042 24.0761 45.7859 24.3127 45.4901C24.5493 45.1943 24.5493 44.8986 24.4901 44.6028L22.893 38.6281C24.1944 37.9774 25.1408 36.6169 25.1408 35.0197C25.1408 32.7718 23.307 30.938 21.0591 30.938C18.8113 30.938 16.9183 32.7718 16.9183 35.0197Z" fill="black"/>
</g>
</svg>
